#define mn_width 24
#define mn_height 20
static unsigned char mn_bits[] = {
   0x00, 0x00, 0x00, 0x00, 0x00, 0x00, 0x00, 0x00, 0x00, 0x00, 0x00, 0x00,
   0x00, 0x00, 0x00, 0xfe, 0xff, 0x7f, 0x02, 0x00, 0x40, 0x3a, 0x00, 0x40,
   0x3a, 0x00, 0x40, 0x02, 0x00, 0x40, 0x02, 0x00, 0x40, 0x02, 0x00, 0x40,
   0x02, 0xc0, 0x43, 0x02, 0x00, 0x40, 0x02, 0xc0, 0x5f, 0x02, 0x00, 0x40,
   0xfe, 0xff, 0x7f, 0x00, 0x00, 0x00, 0x00, 0x00, 0x00, 0x00, 0x00, 0x00 };
