#define n0_width 14
#define n0_height 20
static unsigned char n0_bits[] = {
   0x00, 0x00, 0xfc, 0x0f, 0xfa, 0x17, 0x06, 0x18, 0x06, 0x18, 0x06, 0x18,
   0x06, 0x18, 0x06, 0x18, 0x02, 0x10, 0x00, 0x00, 0x00, 0x00, 0x02, 0x10,
   0x06, 0x18, 0x06, 0x18, 0x06, 0x18, 0x06, 0x18, 0x06, 0x18, 0xfa, 0x17,
   0xfc, 0x0f, 0x00, 0x00 };
