#define n3_width 14
#define n3_height 20
static unsigned char n3_bits[] = {
   0x00, 0x00, 0xfc, 0x0f, 0xf8, 0x17, 0x00, 0x18, 0x00, 0x18, 0x00, 0x18,
   0x00, 0x18, 0x00, 0x18, 0x00, 0x10, 0xfc, 0x0f, 0xfc, 0x0f, 0x00, 0x10,
   0x00, 0x18, 0x00, 0x18, 0x00, 0x18, 0x00, 0x18, 0x00, 0x18, 0xf8, 0x17,
   0xfc, 0x0f, 0x00, 0x00 };
