#define n6_width 14
#define n6_height 20
static unsigned char n6_bits[] = {
   0x00, 0x00, 0xfc, 0x0f, 0xfa, 0x07, 0x06, 0x00, 0x06, 0x00, 0x06, 0x00,
   0x06, 0x00, 0x06, 0x00, 0x02, 0x00, 0xfc, 0x0f, 0xfc, 0x0f, 0x02, 0x10,
   0x06, 0x18, 0x06, 0x18, 0x06, 0x18, 0x06, 0x18, 0x06, 0x18, 0xfa, 0x17,
   0xfc, 0x0f, 0x00, 0x00 };
