#define n7_width 14
#define n7_height 20
static unsigned char n7_bits[] = {
   0x00, 0x00, 0xfc, 0x0f, 0xf8, 0x17, 0x00, 0x18, 0x00, 0x18, 0x00, 0x18,
   0x00, 0x18, 0x00, 0x18, 0x00, 0x10, 0x00, 0x00, 0x00, 0x00, 0x00, 0x10,
   0x00, 0x18, 0x00, 0x18, 0x00, 0x18, 0x00, 0x18, 0x00, 0x18, 0x00, 0x10,
   0x00, 0x00, 0x00, 0x00 };
