#define n8_width 14
#define n8_height 20
static unsigned char n8_bits[] = {
   0x00, 0x00, 0xfc, 0x0f, 0xfa, 0x17, 0x06, 0x18, 0x06, 0x18, 0x06, 0x18,
   0x06, 0x18, 0x06, 0x18, 0x02, 0x10, 0xfc, 0x0f, 0xfc, 0x0f, 0x02, 0x10,
   0x06, 0x18, 0x06, 0x18, 0x06, 0x18, 0x06, 0x18, 0x06, 0x18, 0xfa, 0x17,
   0xfc, 0x0f, 0x00, 0x00 };
