#define nc_width 6
#define nc_height 20
static unsigned char nc_bits[] = {
   0x00, 0x00, 0x00, 0x00, 0x00, 0x00, 0x0c, 0x0c, 0x00, 0x00, 0x00, 0x00,
   0x0c, 0x0c, 0x00, 0x00, 0x00, 0x00, 0x00, 0x00 };
