#define s0_width 8
#define s0_height 11
static unsigned char s0_bits[] = {
   0x00, 0x3c, 0x42, 0x42, 0x42, 0x42, 0x42, 0x42, 0x42, 0x3c, 0x00 };
