#define s1_width 8
#define s1_height 11
static unsigned char s1_bits[] = {
   0x00, 0x00, 0x40, 0x40, 0x40, 0x40, 0x40, 0x40, 0x40, 0x00, 0x00 };
