#define s2_width 8
#define s2_height 11
static unsigned char s2_bits[] = {
   0x00, 0x3c, 0x40, 0x40, 0x40, 0x3c, 0x02, 0x02, 0x02, 0x3c, 0x00 };
