#define s3_width 8
#define s3_height 11
static unsigned char s3_bits[] = {
   0x00, 0x3c, 0x40, 0x40, 0x40, 0x78, 0x40, 0x40, 0x40, 0x3c, 0x00 };
