#define s4_width 8
#define s4_height 11
static unsigned char s4_bits[] = {
   0x00, 0x00, 0x42, 0x42, 0x42, 0x7c, 0x40, 0x40, 0x40, 0x00, 0x00 };
