#define s6_width 8
#define s6_height 11
static unsigned char s6_bits[] = {
   0x00, 0x3c, 0x02, 0x02, 0x02, 0x3c, 0x42, 0x42, 0x42, 0x3c, 0x00 };
