#define s7_width 8
#define s7_height 11
static unsigned char s7_bits[] = {
   0x00, 0x3c, 0x40, 0x40, 0x40, 0x40, 0x40, 0x40, 0x40, 0x00, 0x00 };
