#define s8_width 8
#define s8_height 11
static unsigned char s8_bits[] = {
   0x00, 0x3c, 0x42, 0x42, 0x42, 0x3c, 0x42, 0x42, 0x42, 0x3c, 0x00 };
