#define s9_width 8
#define s9_height 11
static unsigned char s9_bits[] = {
   0x00, 0x3c, 0x42, 0x42, 0x42, 0x7c, 0x40, 0x40, 0x40, 0x3c, 0x00 };
