#define sc_width 3
#define sc_height 11
static unsigned char sc_bits[] = {
   0x00, 0x00, 0x02, 0x02, 0x00, 0x00, 0x00, 0x02, 0x02, 0x00, 0x00 };
